<svg width="383" height="160" viewBox="0 0 383 160" fill="none" xmlns="http://www.w3.org/2000/svg">
  <rect x="1" y="1" width="381" height="158" rx="8" fill="#FEF9E7" stroke="#F59E0B" stroke-width="2"/>
  <text x="16" y="30" font-family="ui-monospace, SFMono-Regular, 'SF Mono', Menlo, Consolas, 'Liberation Mono', monospace" font-size="12" fill="#6B7280">Compute (- 4 1)</text>
  <line x1="16" y1="38" x2="367" y2="38" stroke="#FDE68A" stroke-width="1"/>
  <text x="16" y="52" font-family="ui-monospace, SFMono-Regular, 'SF Mono', Menlo, Consolas, 'Liberation Mono', monospace" font-size="14" fill="#374151"><tspan x="25">-</tspan><tspan x="43">i</tspan><tspan x="52">s</tspan><tspan x="70">w</tspan><tspan x="79">h</tspan><tspan x="88">a</tspan><tspan x="97">t</tspan><tspan x="106">?</tspan><tspan x="124">→</tspan><tspan x="142">t</tspan><tspan x="151">h</tspan><tspan x="160">e</tspan><tspan x="178">&quot;</tspan><tspan x="187">s</tspan><tspan x="196">u</tspan><tspan x="205">b</tspan><tspan x="214">t</tspan><tspan x="223">r</tspan><tspan x="232">a</tspan><tspan x="241">c</tspan><tspan x="250">t</tspan><tspan x="259">i</tspan><tspan x="268">o</tspan><tspan x="277">n</tspan><tspan x="286">&quot;</tspan><tspan x="304">f</tspan><tspan x="313">e</tspan><tspan x="322">a</tspan><tspan x="331">t</tspan><tspan x="340">u</tspan><tspan x="349">r</tspan><tspan x="358">e</tspan></text>
  <text x="16" y="74" font-family="ui-monospace, SFMono-Regular, 'SF Mono', Menlo, Consolas, 'Liberation Mono', monospace" font-size="14" fill="#374151"><tspan x="25">4</tspan><tspan x="43">i</tspan><tspan x="52">s</tspan><tspan x="70">w</tspan><tspan x="79">h</tspan><tspan x="88">a</tspan><tspan x="97">t</tspan><tspan x="106">?</tspan><tspan x="124">→</tspan><tspan x="142">j</tspan><tspan x="151">u</tspan><tspan x="160">s</tspan><tspan x="169">t</tspan><tspan x="187">t</tspan><tspan x="196">h</tspan><tspan x="205">e</tspan><tspan x="223">n</tspan><tspan x="232">u</tspan><tspan x="241">m</tspan><tspan x="250">b</tspan><tspan x="259">e</tspan><tspan x="268">r</tspan><tspan x="286">4</tspan></text>
  <text x="16" y="96" font-family="ui-monospace, SFMono-Regular, 'SF Mono', Menlo, Consolas, 'Liberation Mono', monospace" font-size="14" fill="#374151"><tspan x="25">1</tspan><tspan x="43">i</tspan><tspan x="52">s</tspan><tspan x="70">w</tspan><tspan x="79">h</tspan><tspan x="88">a</tspan><tspan x="97">t</tspan><tspan x="106">?</tspan><tspan x="124">→</tspan><tspan x="142">j</tspan><tspan x="151">u</tspan><tspan x="160">s</tspan><tspan x="169">t</tspan><tspan x="187">t</tspan><tspan x="196">h</tspan><tspan x="205">e</tspan><tspan x="223">n</tspan><tspan x="232">u</tspan><tspan x="241">m</tspan><tspan x="250">b</tspan><tspan x="259">e</tspan><tspan x="268">r</tspan><tspan x="286">1</tspan></text>
  <text x="16" y="140" font-family="ui-monospace, SFMono-Regular, 'SF Mono', Menlo, Consolas, 'Liberation Mono', monospace" font-size="14" fill="#374151"><tspan x="25">U</tspan><tspan x="34">s</tspan><tspan x="43">e</tspan><tspan x="61">&quot;</tspan><tspan x="70">s</tspan><tspan x="79">u</tspan><tspan x="88">b</tspan><tspan x="97">t</tspan><tspan x="106">r</tspan><tspan x="115">a</tspan><tspan x="124">c</tspan><tspan x="133">t</tspan><tspan x="142">i</tspan><tspan x="151">o</tspan><tspan x="160">n</tspan><tspan x="169">&quot;</tspan><tspan x="187">o</tspan><tspan x="196">n</tspan><tspan x="214">(</tspan><tspan x="223">4</tspan><tspan x="232">,</tspan><tspan x="250">1</tspan><tspan x="259">)</tspan><tspan x="268">:</tspan><tspan x="286">4</tspan><tspan x="304">-</tspan><tspan x="322">1</tspan><tspan x="340">=</tspan><tspan x="358">3</tspan></text>
</svg>
