<svg width="280" height="138" viewBox="0 0 280 138" fill="none" xmlns="http://www.w3.org/2000/svg">
  <rect x="1" y="1" width="278" height="136" rx="8" fill="#FEF9E7" stroke="#F59E0B" stroke-width="2"/>
  <text x="16" y="30" font-family="ui-monospace, SFMono-Regular, 'SF Mono', Menlo, Consolas, 'Liberation Mono', monospace" font-size="14" fill="#374151"><tspan x="25">f</tspan><tspan x="43">=</tspan><tspan x="61">s</tspan><tspan x="70">q</tspan><tspan x="79">u</tspan><tspan x="88">a</tspan><tspan x="97">r</tspan><tspan x="106">e</tspan><tspan x="115">,</tspan><tspan x="133">a</tspan><tspan x="142">r</tspan><tspan x="151">g</tspan><tspan x="160">u</tspan><tspan x="169">m</tspan><tspan x="178">e</tspan><tspan x="187">n</tspan><tspan x="196">t</tspan><tspan x="214">=</tspan><tspan x="232">9</tspan></text>
  <text x="16" y="52" font-family="ui-monospace, SFMono-Regular, 'SF Mono', Menlo, Consolas, 'Liberation Mono', monospace" font-size="14" fill="#374151"><tspan x="25">→</tspan><tspan x="43">(</tspan><tspan x="52">s</tspan><tspan x="61">q</tspan><tspan x="70">u</tspan><tspan x="79">a</tspan><tspan x="88">r</tspan><tspan x="97">e</tspan><tspan x="115">9</tspan><tspan x="124">)</tspan></text>
  <text x="16" y="74" font-family="ui-monospace, SFMono-Regular, 'SF Mono', Menlo, Consolas, 'Liberation Mono', monospace" font-size="14" fill="#374151"><tspan x="25">→</tspan><tspan x="43">(</tspan><tspan x="52">(</tspan><tspan x="61">l</tspan><tspan x="70">a</tspan><tspan x="79">m</tspan><tspan x="88">b</tspan><tspan x="97">d</tspan><tspan x="106">a</tspan><tspan x="124">(</tspan><tspan x="133">x</tspan><tspan x="142">)</tspan><tspan x="160">(</tspan><tspan x="169">*</tspan><tspan x="187">x</tspan><tspan x="205">x</tspan><tspan x="214">)</tspan><tspan x="223">)</tspan><tspan x="241">9</tspan><tspan x="250">)</tspan></text>
  <text x="16" y="96" font-family="ui-monospace, SFMono-Regular, 'SF Mono', Menlo, Consolas, 'Liberation Mono', monospace" font-size="14" fill="#374151"><tspan x="25">→</tspan><tspan x="43">(</tspan><tspan x="52">*</tspan><tspan x="70">9</tspan><tspan x="88">9</tspan><tspan x="97">)</tspan></text>
  <text x="16" y="118" font-family="ui-monospace, SFMono-Regular, 'SF Mono', Menlo, Consolas, 'Liberation Mono', monospace" font-size="14" fill="#374151"><tspan x="25">→</tspan><tspan x="43">8</tspan><tspan x="52">1</tspan></text>
</svg>
