<svg width="401" height="160" viewBox="0 0 401 160" fill="none" xmlns="http://www.w3.org/2000/svg">
  <rect x="1" y="1" width="399" height="158" rx="8" fill="#FEF9E7" stroke="#F59E0B" stroke-width="2"/>
  <text x="16" y="30" font-family="ui-monospace, SFMono-Regular, 'SF Mono', Menlo, Consolas, 'Liberation Mono', monospace" font-size="14" fill="#374151"><tspan x="25">n</tspan><tspan x="34">e</tspan><tspan x="43">w</tspan><tspan x="52">_</tspan><tspan x="61">e</tspan><tspan x="70">n</tspan><tspan x="79">v</tspan><tspan x="97">(</tspan><tspan x="106">c</tspan><tspan x="115">u</tspan><tspan x="124">r</tspan><tspan x="133">r</tspan><tspan x="142">e</tspan><tspan x="151">n</tspan><tspan x="160">t</tspan><tspan x="169">)</tspan></text>
  <text x="16" y="52" font-family="ui-monospace, SFMono-Regular, 'SF Mono', Menlo, Consolas, 'Liberation Mono', monospace" font-size="14" fill="#374151"><tspan x="34">a</tspan><tspan x="43">d</tspan><tspan x="52">d</tspan><tspan x="70">→</tspan><tspan x="88">L</tspan><tspan x="97">a</tspan><tspan x="106">m</tspan><tspan x="115">b</tspan><tspan x="124">d</tspan><tspan x="133">a</tspan><tspan x="142">{</tspan><tspan x="151">.</tspan><tspan x="160">.</tspan><tspan x="169">.</tspan><tspan x="178">}</tspan></text>
  <text x="16" y="74" font-family="ui-monospace, SFMono-Regular, 'SF Mono', Menlo, Consolas, 'Liberation Mono', monospace" font-size="14" fill="#374151"><tspan x="34">+</tspan><tspan x="70">→</tspan><tspan x="88">F</tspan><tspan x="97">u</tspan><tspan x="106">n</tspan><tspan x="115">c</tspan><tspan x="124">(</tspan><tspan x="133">a</tspan><tspan x="142">d</tspan><tspan x="151">d</tspan><tspan x="160">i</tspan><tspan x="169">t</tspan><tspan x="178">i</tspan><tspan x="187">o</tspan><tspan x="196">n</tspan><tspan x="205">)</tspan></text>
  <text x="16" y="96" font-family="ui-monospace, SFMono-Regular, 'SF Mono', Menlo, Consolas, 'Liberation Mono', monospace" font-size="14" fill="#374151"><tspan x="34">-</tspan><tspan x="70">→</tspan><tspan x="88">F</tspan><tspan x="97">u</tspan><tspan x="106">n</tspan><tspan x="115">c</tspan><tspan x="124">(</tspan><tspan x="133">s</tspan><tspan x="142">u</tspan><tspan x="151">b</tspan><tspan x="160">t</tspan><tspan x="169">r</tspan><tspan x="178">a</tspan><tspan x="187">c</tspan><tspan x="196">t</tspan><tspan x="205">i</tspan><tspan x="214">o</tspan><tspan x="223">n</tspan><tspan x="232">)</tspan></text>
  <text x="16" y="118" font-family="ui-monospace, SFMono-Regular, 'SF Mono', Menlo, Consolas, 'Liberation Mono', monospace" font-size="14" fill="#374151"><tspan x="34">.</tspan><tspan x="43">.</tspan><tspan x="52">.</tspan></text>
  <text x="16" y="140" font-family="ui-monospace, SFMono-Regular, 'SF Mono', Menlo, Consolas, 'Liberation Mono', monospace" font-size="14" fill="#374151"><tspan x="25">o</tspan><tspan x="34">u</tspan><tspan x="43">t</tspan><tspan x="52">e</tspan><tspan x="61">r</tspan><tspan x="79">=</tspan><tspan x="97">N</tspan><tspan x="106">o</tspan><tspan x="115">n</tspan><tspan x="124">e</tspan><tspan x="151">(</tspan><tspan x="160">c</tspan><tspan x="169">l</tspan><tspan x="178">o</tspan><tspan x="187">n</tspan><tspan x="196">e</tspan><tspan x="214">d</tspan><tspan x="223">o</tspan><tspan x="232">e</tspan><tspan x="241">s</tspan><tspan x="250">n</tspan><tspan x="259">'</tspan><tspan x="268">t</tspan><tspan x="286">c</tspan><tspan x="295">o</tspan><tspan x="304">p</tspan><tspan x="313">y</tspan><tspan x="331">o</tspan><tspan x="340">u</tspan><tspan x="349">t</tspan><tspan x="358">e</tspan><tspan x="367">r</tspan><tspan x="376">)</tspan></text>
</svg>
