<svg width="518" height="94" viewBox="0 0 518 94" fill="none" xmlns="http://www.w3.org/2000/svg">
  <rect x="1" y="1" width="516" height="92" rx="8" fill="#FEF9E7" stroke="#F59E0B" stroke-width="2"/>
  <text x="16" y="30" font-family="ui-monospace, SFMono-Regular, 'SF Mono', Menlo, Consolas, 'Liberation Mono', 'Noto Sans SC', 'PingFang SC', 'Microsoft YaHei', sans-serif" font-size="14" fill="#374151"><tspan x="25">C</tspan><tspan x="34">a</tspan><tspan x="43">l</tspan><tspan x="52">l</tspan><tspan x="61">F</tspan><tspan x="70">r</tspan><tspan x="79">a</tspan><tspan x="88">m</tspan><tspan x="97">e</tspan><tspan x="106">₁</tspan><tspan x="124">(</tspan><tspan x="133">闭</tspan><tspan x="151">包</tspan><tspan x="169">捕</tspan><tspan x="187">获</tspan><tspan x="205">的</tspan><tspan x="223">环</tspan><tspan x="241">境</tspan><tspan x="259">)</tspan></text>
  <text x="16" y="52" font-family="ui-monospace, SFMono-Regular, 'SF Mono', Menlo, Consolas, 'Liberation Mono', 'Noto Sans SC', 'PingFang SC', 'Microsoft YaHei', sans-serif" font-size="14" fill="#374151"><tspan x="43">n</tspan><tspan x="61">→</tspan><tspan x="79">N</tspan><tspan x="88">u</tspan><tspan x="97">m</tspan><tspan x="106">b</tspan><tspan x="115">e</tspan><tspan x="124">r</tspan><tspan x="133">(</tspan><tspan x="142">5</tspan><tspan x="151">)</tspan><tspan x="232">←</tspan><tspan x="250">调</tspan><tspan x="268">用</tspan><tspan x="295">(</tspan><tspan x="304">m</tspan><tspan x="313">a</tspan><tspan x="322">k</tspan><tspan x="331">e</tspan><tspan x="340">-</tspan><tspan x="349">a</tspan><tspan x="358">d</tspan><tspan x="367">d</tspan><tspan x="376">e</tspan><tspan x="385">r</tspan><tspan x="403">5</tspan><tspan x="412">)</tspan><tspan x="430">时</tspan><tspan x="448">绑</tspan><tspan x="466">定</tspan><tspan x="484">的</tspan></text>
  <text x="16" y="74" font-family="ui-monospace, SFMono-Regular, 'SF Mono', Menlo, Consolas, 'Liberation Mono', 'Noto Sans SC', 'PingFang SC', 'Microsoft YaHei', sans-serif" font-size="14" fill="#374151"><tspan x="43">o</tspan><tspan x="52">u</tspan><tspan x="61">t</tspan><tspan x="70">e</tspan><tspan x="79">r</tspan><tspan x="97">─</tspan><tspan x="106">─</tspan><tspan x="115">┐</tspan></text>
</svg>
