<svg width="698" height="138" viewBox="0 0 698 138" fill="none" xmlns="http://www.w3.org/2000/svg">
  <rect x="1" y="1" width="696" height="136" rx="8" fill="#FEF9E7" stroke="#F59E0B" stroke-width="2"/>
  <text x="16" y="30" font-family="ui-monospace, SFMono-Regular, 'SF Mono', Menlo, Consolas, 'Liberation Mono', 'Noto Sans SC', 'PingFang SC', 'Microsoft YaHei', sans-serif" font-size="14" fill="#374151"><tspan x="25">层</tspan><tspan x="97">│</tspan><tspan x="115">展</tspan><tspan x="133">开</tspan><tspan x="160">n</tspan><tspan x="169">│</tspan><tspan x="187">(</tspan><tspan x="196">=</tspan><tspan x="214">n</tspan><tspan x="232">1</tspan><tspan x="241">)</tspan><tspan x="250">?</tspan><tspan x="268">│</tspan><tspan x="286">(</tspan><tspan x="295">-</tspan><tspan x="313">n</tspan><tspan x="331">1</tspan><tspan x="340">)</tspan><tspan x="358">=</tspan><tspan x="376">?</tspan><tspan x="394">│</tspan><tspan x="412">暂</tspan><tspan x="430">停</tspan><tspan x="448">，</tspan><tspan x="466">等</tspan><tspan x="484">下</tspan><tspan x="502">一</tspan><tspan x="520">层</tspan></text>
  <line x1="16" y1="41" x2="682" y2="41" stroke="#FDE68A" stroke-width="1.5"/>
  <text x="16" y="74" font-family="ui-monospace, SFMono-Regular, 'SF Mono', Menlo, Consolas, 'Liberation Mono', 'Noto Sans SC', 'PingFang SC', 'Microsoft YaHei', sans-serif" font-size="14" fill="#374151"><tspan x="25">第</tspan><tspan x="52">2</tspan><tspan x="70">层</tspan><tspan x="97">│</tspan><tspan x="115">n</tspan><tspan x="133">=</tspan><tspan x="151">4</tspan><tspan x="169">│</tspan><tspan x="187">#</tspan><tspan x="196">f</tspan><tspan x="268">│</tspan><tspan x="286">4</tspan><tspan x="295">-</tspan><tspan x="304">1</tspan><tspan x="322">=</tspan><tspan x="340">3</tspan><tspan x="394">│</tspan><tspan x="412">(</tspan><tspan x="421">f</tspan><tspan x="430">a</tspan><tspan x="439">c</tspan><tspan x="448">t</tspan><tspan x="466">4</tspan><tspan x="475">)</tspan><tspan x="484">=</tspan><tspan x="493">(</tspan><tspan x="502">*</tspan><tspan x="520">4</tspan><tspan x="538">(</tspan><tspan x="547">f</tspan><tspan x="556">a</tspan><tspan x="565">c</tspan><tspan x="574">t</tspan><tspan x="592">3</tspan><tspan x="610">的</tspan><tspan x="628">结</tspan><tspan x="646">果</tspan><tspan x="664">)</tspan><tspan x="673">)</tspan></text>
  <text x="16" y="96" font-family="ui-monospace, SFMono-Regular, 'SF Mono', Menlo, Consolas, 'Liberation Mono', 'Noto Sans SC', 'PingFang SC', 'Microsoft YaHei', sans-serif" font-size="14" fill="#374151"><tspan x="25">第</tspan><tspan x="52">3</tspan><tspan x="70">层</tspan><tspan x="97">│</tspan><tspan x="115">n</tspan><tspan x="133">=</tspan><tspan x="151">3</tspan><tspan x="169">│</tspan><tspan x="187">#</tspan><tspan x="196">f</tspan><tspan x="268">│</tspan><tspan x="286">3</tspan><tspan x="295">-</tspan><tspan x="304">1</tspan><tspan x="322">=</tspan><tspan x="340">2</tspan><tspan x="394">│</tspan><tspan x="412">(</tspan><tspan x="421">f</tspan><tspan x="430">a</tspan><tspan x="439">c</tspan><tspan x="448">t</tspan><tspan x="466">3</tspan><tspan x="475">)</tspan><tspan x="484">=</tspan><tspan x="493">(</tspan><tspan x="502">*</tspan><tspan x="520">3</tspan><tspan x="538">(</tspan><tspan x="547">f</tspan><tspan x="556">a</tspan><tspan x="565">c</tspan><tspan x="574">t</tspan><tspan x="592">2</tspan><tspan x="610">的</tspan><tspan x="628">结</tspan><tspan x="646">果</tspan><tspan x="664">)</tspan><tspan x="673">)</tspan></text>
  <text x="16" y="118" font-family="ui-monospace, SFMono-Regular, 'SF Mono', Menlo, Consolas, 'Liberation Mono', 'Noto Sans SC', 'PingFang SC', 'Microsoft YaHei', sans-serif" font-size="14" fill="#374151"><tspan x="25">第</tspan><tspan x="52">4</tspan><tspan x="70">层</tspan><tspan x="97">│</tspan><tspan x="115">n</tspan><tspan x="133">=</tspan><tspan x="151">2</tspan><tspan x="169">│</tspan><tspan x="187">#</tspan><tspan x="196">f</tspan><tspan x="268">│</tspan><tspan x="286">2</tspan><tspan x="295">-</tspan><tspan x="304">1</tspan><tspan x="322">=</tspan><tspan x="340">1</tspan><tspan x="394">│</tspan><tspan x="412">(</tspan><tspan x="421">f</tspan><tspan x="430">a</tspan><tspan x="439">c</tspan><tspan x="448">t</tspan><tspan x="466">2</tspan><tspan x="475">)</tspan><tspan x="484">=</tspan><tspan x="493">(</tspan><tspan x="502">*</tspan><tspan x="520">2</tspan><tspan x="538">(</tspan><tspan x="547">f</tspan><tspan x="556">a</tspan><tspan x="565">c</tspan><tspan x="574">t</tspan><tspan x="592">1</tspan><tspan x="610">的</tspan><tspan x="628">结</tspan><tspan x="646">果</tspan><tspan x="664">)</tspan><tspan x="673">)</tspan></text>
</svg>
